<svg id="Layer_1" data-name="Layer 1" xmlns="http://www.w3.org/2000/svg" viewBox="0 0 761.62 761.56"><title>bml</title><path d="M115.89,830.78v-4.53q0-376,0-752c0-5,0-5,4.88-5H877.51V830.78ZM599.26,139.13l-.71-.27L341.86,604.61h4.52c15.7,0,31.41-.14,47.11.11,3.62.06,5.31-1.23,7-4.24Q473.22,468,546.17,335.55c.65-1.18,1.36-2.32,2-3.47l.7.15V604.35h50.35Zm80.83,482.2H313.6c.66,1.38,1.1,2.41,1.62,3.39,8.38,15.83,16.83,31.61,25.08,47.51,1.3,2.5,2.8,3.17,5.45,3.17q165.05-.09,330.1-.06c1.37,0,2.74-.11,4.25-.18ZM342,735c0,6.11.13,11.48-.06,16.85a5.31,5.31,0,0,0,2.59,4.91c9.21,6.82,19.07,7.1,29.26,2.82,7.76-3.26,15.29-7.08,23.07-10.27,9.85-4,19.57-3.71,29.07,1.59a74.68,74.68,0,0,0,11.24,4.9c14.67,5.26,29,5.76,42.81-3a55.9,55.9,0,0,1,10.83-4.92c7.22-2.62,14.24-2.1,20.85,2.11,2.47,1.57,5,3.07,7.52,4.52,13.88,7.91,27.88,8.64,42.09.76,3.88-2.15,7.92-4,11.94-5.94,9.24-4.39,18.55-4.31,27.85-.22,4.49,2,8.92,4.11,13.36,6.22,7.32,3.47,14.93,5.46,23.1,4.72,14.89-1.36,28.41-6.56,40.8-14.8a3.85,3.85,0,0,0,1.78-2.38c.15-5.92.08-11.84.08-18.22a16.34,16.34,0,0,0-2,1c-11.46,8.19-24.52,12.37-38.06,15.58a29.89,29.89,0,0,1-19.5-1.93c-6.32-2.76-12.52-5.81-18.86-8.54s-13.32-4.68-20.15-2.38-13.1,5.52-19.49,8.61c-6,2.87-11.91,5.43-18.68,5.41-10,0-18.5-4.34-26.83-9.3-3.38-2-7-4-10.72-5-8.1-2-15.71.64-23.15,3.71-5.72,2.36-11.29,5.41-17.25,6.81-13.51,3.18-26.81.79-38.88-5.4-12.32-6.31-23.93-5.82-36-.27-5.84,2.68-11.75,5.27-17.77,7.5-10.14,3.77-19.78,2.8-28.53-4C343.86,736.13,343.26,735.81,342,735ZM342,698.34c0,4.46.51,8.47-.11,12.3-1.13,7,2.53,10.35,8.21,12.61a40.85,40.85,0,0,0,5.32,1.74c6.7,1.64,13,.06,19.15-2.54,7.74-3.3,15.28-7.09,23.09-10.23a31.4,31.4,0,0,1,28.38,1.9,72.39,72.39,0,0,0,11.56,5c14.46,5.08,28.59,5.56,42.14-3.1a56.2,56.2,0,0,1,10.5-4.83,23.36,23.36,0,0,1,22.41,2.56,89.62,89.62,0,0,0,10.05,5.73c11.59,5.75,23.33,6.35,35.13.54,4.51-2.22,9-4.49,13.5-6.74,10.18-5.1,20.43-5.35,30.77-.51,4.34,2,8.68,4.08,13,6.07,6.57,3,13.41,5.06,20.71,4.53,15.39-1.12,29.43-6.28,42.31-14.66.82-.54,1.94-1.48,2-2.26.16-6.12.09-12.25.09-18.76a15.17,15.17,0,0,0-1.78.88c-9.29,6.83-19.91,10.59-30.79,14.06-11.78,3.77-22.73,3-33.5-3-3.88-2.15-8-3.83-12.08-5.64-10.29-4.57-20.42-4.36-30.38,1.05-3.8,2.07-7.65,4.06-11.48,6.08-10.66,5.63-21.54,5.89-32.44.91a113.15,113.15,0,0,1-12.59-6.92c-5.37-3.34-11.13-5.24-17.36-4.16a93.25,93.25,0,0,0-14.8,4.06c-4.62,1.62-8.91,4.23-13.56,5.74-15,4.86-29.66,2.15-43.27-4.52-11.77-5.77-22.85-5.63-34.41-.55-6,2.64-12,5.37-18.06,7.73-10.58,4.08-20.64,3.36-29.79-3.92C343.48,699.2,343,699,342,698.34Z" transform="translate(-115.89 -69.22)" style="fill:#cc0d0d"/><path d="M599.26,139.13V604.35H548.91V332.23l-.7-.15c-.68,1.16-1.4,2.3-2,3.47Q473.27,468,400.45,600.48c-1.65,3-3.34,4.3-7,4.24-15.7-.25-31.4-.11-47.11-.11h-4.52L598.55,138.86Z" transform="translate(-115.89 -69.22)" style="fill:#fff"/><path d="M680.09,621.33v53.83c-1.5.07-2.88.18-4.25.18q-165.05,0-330.1.06c-2.65,0-4.15-.67-5.45-3.17-8.24-15.9-16.7-31.68-25.08-47.51-.52-1-1-2-1.62-3.39Z" transform="translate(-115.89 -69.22)" style="fill:#fff"/><path d="M342,735c1.22.78,1.82,1.09,2.35,1.5,8.75,6.78,18.38,7.74,28.53,4,6-2.24,11.93-4.82,17.77-7.5,12.08-5.55,23.69-6,36,.27,12.08,6.19,25.38,8.58,38.88,5.4,6-1.4,11.53-4.45,17.25-6.81,7.44-3.07,15.05-5.73,23.15-3.71,3.76.93,7.34,3,10.72,5,8.33,5,16.8,9.28,26.83,9.3,6.78,0,12.73-2.54,18.68-5.41,6.4-3.09,12.79-6.35,19.49-8.61s13.7-.41,20.15,2.38,12.53,5.78,18.86,8.54a29.89,29.89,0,0,0,19.5,1.93c13.54-3.21,26.59-7.39,38.06-15.58a16.34,16.34,0,0,1,2-1c0,6.38.07,12.3-.08,18.22a3.85,3.85,0,0,1-1.78,2.38c-12.39,8.23-25.91,13.44-40.8,14.8-8.17.75-15.79-1.24-23.1-4.72-4.44-2.11-8.87-4.24-13.36-6.22-9.3-4.09-18.61-4.17-27.85.22-4,1.91-8.05,3.79-11.94,5.94-14.21,7.88-28.2,7.15-42.09-.76-2.54-1.45-5.05-3-7.52-4.52-6.61-4.21-13.63-4.73-20.85-2.11A55.9,55.9,0,0,0,480,752.85c-13.8,8.72-28.14,8.22-42.81,3a74.68,74.68,0,0,1-11.24-4.9c-9.49-5.3-19.21-5.64-29.07-1.59-7.78,3.2-15.31,7-23.07,10.27-10.19,4.28-20,4-29.26-2.82a5.31,5.31,0,0,1-2.59-4.91C342.16,746.51,342,741.14,342,735Z" transform="translate(-115.89 -69.22)" style="fill:#fff"/><path d="M342,698.34c1,.62,1.51.86,1.93,1.19,9.15,7.28,19.22,8,29.79,3.92,6.1-2.36,12.07-5.09,18.06-7.73,11.57-5.09,22.65-5.22,34.41.55,13.6,6.67,28.24,9.38,43.27,4.52,4.65-1.51,8.94-4.12,13.56-5.74a93.25,93.25,0,0,1,14.8-4.06c6.23-1.08,12,.82,17.36,4.16a113.15,113.15,0,0,0,12.59,6.92c10.9,5,21.78,4.72,32.44-.91,3.83-2,7.67-4,11.48-6.08,10-5.42,20.1-5.63,30.38-1.05,4.06,1.81,8.2,3.49,12.08,5.64,10.77,6,21.72,6.77,33.5,3,10.88-3.48,21.5-7.24,30.79-14.06a15.17,15.17,0,0,1,1.78-.88c0,6.51.07,12.64-.09,18.76,0,.78-1.14,1.72-2,2.26-12.89,8.38-26.92,13.55-42.31,14.66-7.3.53-14.13-1.53-20.71-4.53-4.36-2-8.7-4-13-6.07-10.34-4.85-20.59-4.6-30.77.51-4.5,2.25-9,4.52-13.5,6.74-11.8,5.81-23.53,5.21-35.13-.54a89.62,89.62,0,0,1-10.05-5.73,23.36,23.36,0,0,0-22.41-2.56,56.2,56.2,0,0,0-10.5,4.83c-13.55,8.66-27.68,8.18-42.14,3.1a72.39,72.39,0,0,1-11.56-5,31.4,31.4,0,0,0-28.38-1.9c-7.81,3.13-15.34,6.93-23.09,10.23-6.11,2.6-12.45,4.18-19.15,2.54a40.85,40.85,0,0,1-5.32-1.74c-5.68-2.25-9.34-5.63-8.21-12.61C342.48,706.82,342,702.8,342,698.34Z" transform="translate(-115.89 -69.22)" style="fill:#fff"/></svg>